<svg width="20" height="20" viewBox="0 0 28 26" fill="none" xmlns="http://www.w3.org/2000/svg">
<g clip-path="url(#clip0_216_38)" filter="url(#filter0_d_216_38)">
<path d="M4.83331 10C4.83331 10 8.16665 3.33334 14 3.33334C19.8333 3.33334 23.1666 10 23.1666 10C23.1666 10 19.8333 16.6667 14 16.6667C8.16665 16.6667 4.83331 10 4.83331 10Z" stroke="#FFC632" stroke-width="2" stroke-linecap="round" stroke-linejoin="round"/>
<path d="M14 12.5C15.3807 12.5 16.5 11.3807 16.5 10C16.5 8.61929 15.3807 7.5 14 7.5C12.6193 7.5 11.5 8.61929 11.5 10C11.5 11.3807 12.6193 12.5 14 12.5Z" stroke="#FFC632" stroke-width="2" stroke-linecap="round" stroke-linejoin="round"/>
</g>
<defs>
<filter id="filter0_d_216_38" x="0" y="0" width="28" height="28" filterUnits="userSpaceOnUse" color-interpolation-filters="sRGB">
<feFlood flood-opacity="0" result="BackgroundImageFix"/>
<feColorMatrix in="SourceAlpha" type="matrix" values="0 0 0 0 0 0 0 0 0 0 0 0 0 0 0 0 0 0 127 0" result="hardAlpha"/>
<feOffset dy="4"/>
<feGaussianBlur stdDeviation="2"/>
<feComposite in2="hardAlpha" operator="out"/>
<feColorMatrix type="matrix" values="0 0 0 0 0 0 0 0 0 0 0 0 0 0 0 0 0 0 0.25 0"/>
<feBlend mode="normal" in2="BackgroundImageFix" result="effect1_dropShadow_216_38"/>
<feBlend mode="normal" in="SourceGraphic" in2="effect1_dropShadow_216_38" result="shape"/>
</filter>
<clipPath id="clip0_216_38">
<rect width="20" height="20" fill="white" transform="translate(4)"/>
</clipPath>
</defs>
</svg>
